<svg width="41" xmlns="http://www.w3.org/2000/svg" height="41" id="screenshot-0f35607a-c9d4-8019-8005-2f470a7fe799" viewBox="715 1072 41 41" style="-webkit-print-color-adjust::exact" xmlns:xlink="http://www.w3.org/1999/xlink" fill="none" version="1.1">
  <g id="shape-0f35607a-c9d4-8019-8005-2f470a7fe799" style="fill:#4A90E2" width="24"
    height="24" rx="0" ry="0">
    <g id="shape-0f35607a-c9d4-8019-8005-2f470a80f9f0" style="display:none">
      <g class="fills" id="fills-0f35607a-c9d4-8019-8005-2f470a80f9f0">
        <rect rx="0" ry="0" x="715" y="1072" transform="matrix(1.000000, 0.000000, 0.000000, 1.000000, 0.000000, 0.000000)" width="41" height="41" color="#000" fill="none" stroke-width="1.5" style="fill:none">
        </rect>
      </g>
    </g>
    <g id="shape-0f35607a-c9d4-8019-8005-2f470a8195de">
      <g class="fills" id="fills-0f35607a-c9d4-8019-8005-2f470a8195de">
        <path
          d="M742.333,1109.629L742.333,1104.726C742.397,1103.912,742.287,1103.093,742.010,1102.324C741.734,1101.555,741.296,1100.854,740.728,1100.267C746.092,1099.670,751.729,1097.637,751.729,1088.309C751.729,1085.924,750.811,1083.630,749.167,1081.903C749.945,1079.816,749.890,1077.510,749.013,1075.462C749.013,1075.462,746.997,1074.865,742.333,1077.991C738.418,1076.930,734.291,1076.930,730.375,1077.991C725.711,1074.865,723.695,1075.462,723.695,1075.462C722.818,1077.510,722.763,1079.816,723.542,1081.903C721.885,1083.643,720.966,1085.958,720.979,1088.360C720.979,1097.620,726.617,1099.652,731.981,1100.319C731.419,1100.900,730.985,1101.592,730.709,1102.351C730.432,1103.111,730.318,1103.920,730.375,1104.726L730.375,1109.629"
          color="#4A90E2" fill="none" stroke-linejoin="round" style="fill:none">
        </path>
      </g>
      <g color="#4A90E2" fill="none" stroke-linejoin="round"
        id="strokes-0f35607a-c9d4-8019-8005-2f470a8195de" class="strokes">
        <g class="stroke-shape">
          <path
            d="M742.333,1109.629L742.333,1104.726C742.397,1103.912,742.287,1103.093,742.010,1102.324C741.734,1101.555,741.296,1100.854,740.728,1100.267C746.092,1099.670,751.729,1097.637,751.729,1088.309C751.729,1085.924,750.811,1083.630,749.167,1081.903C749.945,1079.816,749.890,1077.510,749.013,1075.462C749.013,1075.462,746.997,1074.865,742.333,1077.991C738.418,1076.930,734.291,1076.930,730.375,1077.991C725.711,1074.865,723.695,1075.462,723.695,1075.462C722.818,1077.510,722.763,1079.816,723.542,1081.903C721.885,1083.643,720.966,1085.958,720.979,1088.360C720.979,1097.620,726.617,1099.652,731.981,1100.319C731.419,1100.900,730.985,1101.592,730.709,1102.351C730.432,1103.111,730.318,1103.920,730.375,1104.726L730.375,1109.629"
            style="fill:none;fill-opacity:none;stroke-width:1.5;stroke:#4A90E2;stroke-opacity:1">
          </path>
        </g>
      </g>
    </g>
    <g id="shape-0f35607a-c9d4-8019-8005-2f470a82a524">
      <g class="fills" id="fills-0f35607a-c9d4-8019-8005-2f470a82a524">
        <path d="M730.375,1106.212C725.250,1107.875,720.979,1106.212,718.417,1101.087"
          color="#4A90E2" fill="none" stroke-linejoin="round" style="fill:none">
        </path>
      </g>
      <g color="#4A90E2" fill="none" stroke-linejoin="round"
        id="strokes-0f35607a-c9d4-8019-8005-2f470a82a524" class="strokes">
        <g class="stroke-shape">
          <path d="M730.375,1106.212C725.250,1107.875,720.979,1106.212,718.417,1101.087"
            style="fill:none;fill-opacity:none;stroke-width:1.5;stroke:#4A90E2;stroke-opacity:1">
          </path>
        </g>
      </g>
    </g>
  </g>
</svg>