<svg width="43" xmlns="http://www.w3.org/2000/svg" height="43"
    id="screenshot-0f35607a-c9d4-8019-8005-2f4758ec4c95" viewBox="823 1070 43 43"
    style="-webkit-print-color-adjust::exact" xmlns:xlink="http://www.w3.org/1999/xlink" fill="none"
    version="1.1">
    <g id="shape-0f35607a-c9d4-8019-8005-2f4758ec4c95" style="fill:#000000" width="24" height="24"
        rx="0" ry="0">
        <g id="shape-0f35607a-c9d4-8019-8005-2f4758ed3283" style="display:none">
            <g class="fills" id="fills-0f35607a-c9d4-8019-8005-2f4758ed3283">
                <rect rx="0" ry="0" x="823" y="1070"
                    transform="matrix(1.000000, 0.000000, 0.000000, 1.000000, 0.000000, 0.000000)"
                    width="43.00000000000023" height="43" color="#000" fill="none"
                    stroke-width="1.5" style="fill:none">
                </rect>
            </g>
        </g>
        <g id="shape-0f35607a-c9d4-8019-8005-2f4758eda30a">
            <g class="fills" id="fills-0f35607a-c9d4-8019-8005-2f4758eda30a">
                <path
                    d="M853.135,1107.210L829.724,1077.110C829.175,1076.404,829.678,1075.375,830.573,1075.375L835.016,1075.375C835.348,1075.375,835.661,1075.528,835.864,1075.790L859.276,1105.890C859.825,1106.596,859.322,1107.625,858.427,1107.625L853.984,1107.625C853.652,1107.625,853.339,1107.472,853.135,1107.210ZZ"
                    color="#000" fill="none" style="fill:none">
                </path>
            </g>
            <g color="#000" fill="none" id="strokes-0f35607a-c9d4-8019-8005-2f4758eda30a"
                class="strokes">
                <g class="stroke-shape">
                    <path
                        d="M853.135,1107.210L829.724,1077.110C829.175,1076.404,829.678,1075.375,830.573,1075.375L835.016,1075.375C835.348,1075.375,835.661,1075.528,835.864,1075.790L859.276,1105.890C859.825,1106.596,859.322,1107.625,858.427,1107.625L853.984,1107.625C853.652,1107.625,853.339,1107.472,853.135,1107.210ZZ"
                        style="fill:none;fill-opacity:none;stroke-width:1.5;stroke:#4A90E2;stroke-opacity:1">
                    </path>
                </g>
            </g>
        </g>
        <g id="shape-0f35607a-c9d4-8019-8005-2f4758ede87c">
            <g class="fills" id="fills-0f35607a-c9d4-8019-8005-2f4758ede87c">
                <path d="M858.833,1075.375L830.167,1107.625" color="#4A90E2" fill="none"
                    style="fill:none">
                </path>
            </g>
            <g color="#4A90E2" fill="none" id="strokes-0f35607a-c9d4-8019-8005-2f4758ede87c"
                class="strokes">
                <g class="stroke-shape">
                    <path d="M858.833,1075.375L830.167,1107.625"
                        style="fill:none;fill-opacity:none;stroke-width:1.5;stroke:#4A90E2;stroke-opacity:1">
                    </path>
                </g>
            </g>
        </g>
    </g>
</svg>